<mxfile host="app.diagrams.net" modified="2024-06-30T10:19:11.129Z" agent="Mozilla/5.0 (Windows NT 10.0; Win64; x64) AppleWebKit/537.36 (KHTML, like Gecko) Chrome/126.0.0.0 Safari/537.36" etag="2mByj5dSgmZg7RwVkYS4" version="24.2.5" type="device">
  <diagram name="Page-1" id="jqvgKS405qcs4pd0_BGw">
    <mxGraphModel dx="1084" dy="804" grid="1" gridSize="10" guides="1" tooltips="1" connect="1" arrows="1" fold="1" page="1" pageScale="1" pageWidth="850" pageHeight="1100" math="0" shadow="0">
      <root>
        <mxCell id="0" />
        <mxCell id="1" parent="0" />
        <mxCell id="ZT2tVSSSmxWEEGfIBBer-26" value="ProductBase" style="rounded=0;whiteSpace=wrap;html=1;fontFamily=Lucida Console;fillColor=#d5e8d4;strokeColor=#82b366;" vertex="1" parent="1">
          <mxGeometry x="305" y="253" width="120" height="50" as="geometry" />
        </mxCell>
        <mxCell id="ZT2tVSSSmxWEEGfIBBer-31" value="GMXB" style="rounded=0;whiteSpace=wrap;html=1;fontFamily=Lucida Console;fillColor=#d5e8d4;strokeColor=#82b366;" vertex="1" parent="1">
          <mxGeometry x="133" y="370" width="100" height="50" as="geometry" />
        </mxCell>
        <mxCell id="ZT2tVSSSmxWEEGfIBBer-32" value="" style="endArrow=block;endSize=16;endFill=0;html=1;rounded=0;entryX=0.5;entryY=1;entryDx=0;entryDy=0;exitX=1;exitY=0.5;exitDx=0;exitDy=0;edgeStyle=orthogonalEdgeStyle;fontFamily=Lucida Console;" edge="1" parent="1" source="ZT2tVSSSmxWEEGfIBBer-31" target="ZT2tVSSSmxWEEGfIBBer-26">
          <mxGeometry width="160" relative="1" as="geometry">
            <mxPoint x="413" y="250" as="sourcePoint" />
            <mxPoint x="513" y="330" as="targetPoint" />
          </mxGeometry>
        </mxCell>
        <mxCell id="ZT2tVSSSmxWEEGfIBBer-46" value="" style="endArrow=open;endSize=12;dashed=1;html=1;rounded=0;entryX=0.5;entryY=1;entryDx=0;entryDy=0;exitX=0;exitY=0.5;exitDx=0;exitDy=0;edgeStyle=orthogonalEdgeStyle;" edge="1" parent="1" source="ZT2tVSSSmxWEEGfIBBer-63" target="ZT2tVSSSmxWEEGfIBBer-31">
          <mxGeometry width="160" relative="1" as="geometry">
            <mxPoint x="538" y="380" as="sourcePoint" />
            <mxPoint x="473" y="450" as="targetPoint" />
          </mxGeometry>
        </mxCell>
        <mxCell id="ZT2tVSSSmxWEEGfIBBer-50" value="" style="endArrow=open;endSize=12;dashed=1;html=1;rounded=0;exitX=0;exitY=0.5;exitDx=0;exitDy=0;edgeStyle=orthogonalEdgeStyle;" edge="1" parent="1" source="ZT2tVSSSmxWEEGfIBBer-73">
          <mxGeometry width="160" relative="1" as="geometry">
            <mxPoint x="373" y="817.5" as="sourcePoint" />
            <mxPoint x="183" y="420" as="targetPoint" />
          </mxGeometry>
        </mxCell>
        <mxCell id="ZT2tVSSSmxWEEGfIBBer-54" value="" style="endArrow=open;endSize=12;dashed=1;html=1;rounded=0;exitX=0.5;exitY=0;exitDx=0;exitDy=0;entryX=1;entryY=0.5;entryDx=0;entryDy=0;edgeStyle=orthogonalEdgeStyle;" edge="1" parent="1" source="ZT2tVSSSmxWEEGfIBBer-73" target="ZT2tVSSSmxWEEGfIBBer-72">
          <mxGeometry width="160" relative="1" as="geometry">
            <mxPoint x="848" y="650" as="sourcePoint" />
            <mxPoint x="403" y="750" as="targetPoint" />
          </mxGeometry>
        </mxCell>
        <mxCell id="ZT2tVSSSmxWEEGfIBBer-59" value="" style="group" vertex="1" connectable="0" parent="1">
          <mxGeometry x="120" y="250" width="126" height="56" as="geometry" />
        </mxCell>
        <mxCell id="ZT2tVSSSmxWEEGfIBBer-57" value="" style="rounded=0;whiteSpace=wrap;html=1;fontFamily=Lucida Console;fillColor=#d5e8d4;strokeColor=#82b366;" vertex="1" parent="ZT2tVSSSmxWEEGfIBBer-59">
          <mxGeometry x="6" y="6" width="120" height="50" as="geometry" />
        </mxCell>
        <mxCell id="ZT2tVSSSmxWEEGfIBBer-56" value="" style="rounded=0;whiteSpace=wrap;html=1;fontFamily=Lucida Console;fillColor=#d5e8d4;strokeColor=#82b366;" vertex="1" parent="ZT2tVSSSmxWEEGfIBBer-59">
          <mxGeometry x="3" y="3" width="120" height="50" as="geometry" />
        </mxCell>
        <mxCell id="ZT2tVSSSmxWEEGfIBBer-27" value="&lt;font&gt;Run[run_id]&lt;/font&gt;" style="rounded=0;whiteSpace=wrap;html=1;fontFamily=Lucida Console;fillColor=#d5e8d4;strokeColor=#82b366;" vertex="1" parent="ZT2tVSSSmxWEEGfIBBer-59">
          <mxGeometry width="120" height="50" as="geometry" />
        </mxCell>
        <mxCell id="ZT2tVSSSmxWEEGfIBBer-33" value="" style="endArrow=diamondThin;endFill=1;endSize=24;html=1;rounded=0;fontFamily=Lucida Console;entryX=0.5;entryY=1;entryDx=0;entryDy=0;" edge="1" parent="1" source="ZT2tVSSSmxWEEGfIBBer-31" target="ZT2tVSSSmxWEEGfIBBer-56">
          <mxGeometry width="160" relative="1" as="geometry">
            <mxPoint x="353" y="330" as="sourcePoint" />
            <mxPoint x="103" y="370" as="targetPoint" />
          </mxGeometry>
        </mxCell>
        <mxCell id="ZT2tVSSSmxWEEGfIBBer-60" value="" style="group" vertex="1" connectable="0" parent="1">
          <mxGeometry x="203" y="460" width="180" height="56" as="geometry" />
        </mxCell>
        <mxCell id="ZT2tVSSSmxWEEGfIBBer-61" value="" style="rounded=0;whiteSpace=wrap;html=1;fontFamily=Lucida Console;fillColor=#d5e8d4;strokeColor=#82b366;" vertex="1" parent="ZT2tVSSSmxWEEGfIBBer-60">
          <mxGeometry x="8.571428571428571" y="6" width="171.42857142857144" height="50" as="geometry" />
        </mxCell>
        <mxCell id="ZT2tVSSSmxWEEGfIBBer-62" value="" style="rounded=0;whiteSpace=wrap;html=1;fontFamily=Lucida Console;fillColor=#d5e8d4;strokeColor=#82b366;" vertex="1" parent="ZT2tVSSSmxWEEGfIBBer-60">
          <mxGeometry x="4.285714285714286" y="3" width="171.42857142857144" height="50" as="geometry" />
        </mxCell>
        <mxCell id="ZT2tVSSSmxWEEGfIBBer-63" value="Assumptions&lt;span style=&quot;background-color: initial;&quot;&gt;[asmp_id]&lt;/span&gt;" style="rounded=0;whiteSpace=wrap;html=1;fontFamily=Lucida Console;fillColor=#d5e8d4;strokeColor=#82b366;" vertex="1" parent="ZT2tVSSSmxWEEGfIBBer-60">
          <mxGeometry width="171.42857142857144" height="50" as="geometry" />
        </mxCell>
        <mxCell id="ZT2tVSSSmxWEEGfIBBer-64" value="" style="group" vertex="1" connectable="0" parent="1">
          <mxGeometry x="203" y="535" width="180" height="56" as="geometry" />
        </mxCell>
        <mxCell id="ZT2tVSSSmxWEEGfIBBer-65" value="" style="rounded=0;whiteSpace=wrap;html=1;fontFamily=Lucida Console;fillColor=#d5e8d4;strokeColor=#82b366;" vertex="1" parent="ZT2tVSSSmxWEEGfIBBer-64">
          <mxGeometry x="8.571428571428571" y="6" width="171.42857142857144" height="50" as="geometry" />
        </mxCell>
        <mxCell id="ZT2tVSSSmxWEEGfIBBer-66" value="" style="rounded=0;whiteSpace=wrap;html=1;fontFamily=Lucida Console;fillColor=#d5e8d4;strokeColor=#82b366;" vertex="1" parent="ZT2tVSSSmxWEEGfIBBer-64">
          <mxGeometry x="4.285714285714286" y="3" width="171.42857142857144" height="50" as="geometry" />
        </mxCell>
        <mxCell id="ZT2tVSSSmxWEEGfIBBer-67" value="Scenarios&lt;div&gt;&lt;span style=&quot;background-color: initial;&quot;&gt;[date_id,sens_id]&lt;/span&gt;&lt;/div&gt;" style="rounded=0;whiteSpace=wrap;html=1;fontFamily=Lucida Console;fillColor=#d5e8d4;strokeColor=#82b366;" vertex="1" parent="ZT2tVSSSmxWEEGfIBBer-64">
          <mxGeometry width="171.42857142857144" height="50" as="geometry" />
        </mxCell>
        <mxCell id="ZT2tVSSSmxWEEGfIBBer-68" value="" style="group" vertex="1" connectable="0" parent="1">
          <mxGeometry x="203" y="610" width="180" height="56" as="geometry" />
        </mxCell>
        <mxCell id="ZT2tVSSSmxWEEGfIBBer-69" value="" style="rounded=0;whiteSpace=wrap;html=1;fontFamily=Lucida Console;fillColor=#d5e8d4;strokeColor=#82b366;" vertex="1" parent="ZT2tVSSSmxWEEGfIBBer-68">
          <mxGeometry x="8.571428571428571" y="6" width="171.42857142857144" height="50" as="geometry" />
        </mxCell>
        <mxCell id="ZT2tVSSSmxWEEGfIBBer-70" value="" style="rounded=0;whiteSpace=wrap;html=1;fontFamily=Lucida Console;fillColor=#d5e8d4;strokeColor=#82b366;" vertex="1" parent="ZT2tVSSSmxWEEGfIBBer-68">
          <mxGeometry x="4.285714285714286" y="3" width="171.42857142857144" height="50" as="geometry" />
        </mxCell>
        <mxCell id="ZT2tVSSSmxWEEGfIBBer-71" value="ModelPoints&lt;div&gt;[mp_file_id,space_name]&lt;/div&gt;" style="rounded=0;whiteSpace=wrap;html=1;fontFamily=Lucida Console;fillColor=#d5e8d4;strokeColor=#82b366;" vertex="1" parent="ZT2tVSSSmxWEEGfIBBer-68">
          <mxGeometry width="171.42857142857144" height="50" as="geometry" />
        </mxCell>
        <mxCell id="ZT2tVSSSmxWEEGfIBBer-72" value="Mortality" style="rounded=0;whiteSpace=wrap;html=1;fontFamily=Lucida Console;fillColor=#d5e8d4;strokeColor=#82b366;" vertex="1" parent="1">
          <mxGeometry x="203" y="700" width="120" height="50" as="geometry" />
        </mxCell>
        <mxCell id="ZT2tVSSSmxWEEGfIBBer-73" value="BaseData" style="rounded=0;whiteSpace=wrap;html=1;fontFamily=Lucida Console;fillColor=#d5e8d4;strokeColor=#82b366;" vertex="1" parent="1">
          <mxGeometry x="373" y="780" width="100" height="50" as="geometry" />
        </mxCell>
        <mxCell id="ZT2tVSSSmxWEEGfIBBer-74" value="" style="endArrow=open;endSize=12;dashed=1;html=1;rounded=0;exitX=0;exitY=0.5;exitDx=0;exitDy=0;edgeStyle=orthogonalEdgeStyle;" edge="1" parent="1" source="ZT2tVSSSmxWEEGfIBBer-67">
          <mxGeometry width="160" relative="1" as="geometry">
            <mxPoint x="213" y="495" as="sourcePoint" />
            <mxPoint x="183" y="420" as="targetPoint" />
          </mxGeometry>
        </mxCell>
        <mxCell id="ZT2tVSSSmxWEEGfIBBer-75" value="" style="endArrow=open;endSize=12;dashed=1;html=1;rounded=0;exitX=0;exitY=0.5;exitDx=0;exitDy=0;edgeStyle=orthogonalEdgeStyle;" edge="1" parent="1" source="ZT2tVSSSmxWEEGfIBBer-71">
          <mxGeometry width="160" relative="1" as="geometry">
            <mxPoint x="213" y="570" as="sourcePoint" />
            <mxPoint x="183" y="420" as="targetPoint" />
          </mxGeometry>
        </mxCell>
        <mxCell id="ZT2tVSSSmxWEEGfIBBer-76" value="" style="endArrow=open;endSize=12;dashed=1;html=1;rounded=0;exitX=0;exitY=0.5;exitDx=0;exitDy=0;edgeStyle=orthogonalEdgeStyle;entryX=0.5;entryY=1;entryDx=0;entryDy=0;" edge="1" parent="1" source="ZT2tVSSSmxWEEGfIBBer-72" target="ZT2tVSSSmxWEEGfIBBer-31">
          <mxGeometry width="160" relative="1" as="geometry">
            <mxPoint x="213" y="645" as="sourcePoint" />
            <mxPoint x="193" y="430" as="targetPoint" />
          </mxGeometry>
        </mxCell>
        <mxCell id="ZT2tVSSSmxWEEGfIBBer-78" value="" style="endArrow=open;endSize=12;dashed=1;html=1;rounded=0;exitX=0.5;exitY=0;exitDx=0;exitDy=0;entryX=1.003;entryY=0.42;entryDx=0;entryDy=0;edgeStyle=orthogonalEdgeStyle;entryPerimeter=0;" edge="1" parent="1" source="ZT2tVSSSmxWEEGfIBBer-73" target="ZT2tVSSSmxWEEGfIBBer-69">
          <mxGeometry width="160" relative="1" as="geometry">
            <mxPoint x="433" y="790" as="sourcePoint" />
            <mxPoint x="333" y="735" as="targetPoint" />
          </mxGeometry>
        </mxCell>
        <mxCell id="ZT2tVSSSmxWEEGfIBBer-79" value="" style="endArrow=open;endSize=12;dashed=1;html=1;rounded=0;exitX=0.5;exitY=0;exitDx=0;exitDy=0;entryX=1;entryY=0.5;entryDx=0;entryDy=0;edgeStyle=orthogonalEdgeStyle;" edge="1" parent="1" source="ZT2tVSSSmxWEEGfIBBer-73" target="ZT2tVSSSmxWEEGfIBBer-65">
          <mxGeometry width="160" relative="1" as="geometry">
            <mxPoint x="433" y="790" as="sourcePoint" />
            <mxPoint x="384" y="645" as="targetPoint" />
          </mxGeometry>
        </mxCell>
        <mxCell id="ZT2tVSSSmxWEEGfIBBer-80" value="" style="endArrow=open;endSize=12;dashed=1;html=1;rounded=0;exitX=0.5;exitY=0;exitDx=0;exitDy=0;entryX=1;entryY=0.5;entryDx=0;entryDy=0;edgeStyle=orthogonalEdgeStyle;" edge="1" parent="1" source="ZT2tVSSSmxWEEGfIBBer-73" target="ZT2tVSSSmxWEEGfIBBer-61">
          <mxGeometry width="160" relative="1" as="geometry">
            <mxPoint x="433" y="790" as="sourcePoint" />
            <mxPoint x="384" y="570" as="targetPoint" />
          </mxGeometry>
        </mxCell>
      </root>
    </mxGraphModel>
  </diagram>
</mxfile>
